<svg width="44" height="49" viewBox="0 0 44 49" fill="none" xmlns="http://www.w3.org/2000/svg">
<g clip-path="url(#clip0_1_133)">
<path d="M36.7321 16.6583C38.1917 15.8913 39.5879 15.0098 40.9077 14.0219" stroke="#333333" stroke-width="1.82" stroke-linecap="round" stroke-linejoin="round"/>
<path d="M39.1171 10.7532C40.3071 12.9358 41.6177 15.0503 43.0431 17.0868" stroke="#333333" stroke-width="1.82" stroke-linecap="round" stroke-linejoin="round"/>
<path d="M24.8469 5.0658C24.8469 5.0658 25.0393 2.8818 24.7611 1.7274C23.0711 1.0904 20.0811 1.7638 18.1779 1.7976C16.4893 1.83233 14.8039 1.95731 13.1287 2.172C13.1442 3.15943 13.2119 4.14532 13.3315 5.1256C16.9585 5.084 20.6401 4.6472 24.8469 5.0658Z" stroke="#333333" stroke-width="1.82" stroke-linecap="round" stroke-linejoin="round"/>
<path d="M19.3796 8.14284V5.13464" stroke="#333333" stroke-width="1.82" stroke-linecap="round" stroke-linejoin="round"/>
<path d="M39.8915 26.9582C39.4989 21.8961 37.9571 17.0003 34.1221 13.4383C30.5211 10.0921 25.6018 8.72968 19.731 8.21228C14.31 8.21228 8.87339 10.6147 5.50639 14.9515C3.63959 17.3539 2.2044 19.5873 1.583 22.5409C0.981058 25.3401 0.767585 28.2088 0.948597 31.0662C1.2086 35.182 3.02859 38.7102 5.81579 41.7002C7.70079 43.71 9.80939 45.0464 12.451 46.1202C15.6683 47.4192 19.1823 47.8027 22.604 47.2278C32.9495 45.6184 40.7287 37.717 39.8915 26.9582ZM31.8185 37.6182C28.5971 41.2972 25.126 42.5582 20.2614 43.0626C17.9032 43.3096 12.9398 41.942 9.80679 39.563C6.67379 37.184 4.23239 31.542 4.66919 26.0171C5.04099 21.3085 9.37259 15.5131 13.8472 13.7035C16.6448 12.5725 20.7346 12.4191 23.6674 13.1055C28.1499 14.1455 31.3609 15.9889 33.5475 19.8915C36.8729 25.8663 36.5297 32.2518 31.8185 37.6286V37.6182Z" fill="#FFDE4B" stroke="#FFDE4B" stroke-width="1.82" stroke-linecap="round" stroke-linejoin="round"/>
<path d="M31.2211 27.8962C31.2211 27.8962 22.8231 27.28 18.8191 27.1864" stroke="#333333" stroke-width="1.82" stroke-linecap="round" stroke-linejoin="round"/>
<path d="M17.5132 28.9412C15.4878 27.0458 17.5756 24.2092 19.744 24.6122C21.564 24.9554 23.124 28.1066 21.1584 29.4638C20.2562 30.0852 18.5402 30.0384 17.5132 28.9412Z" fill="#333333" stroke="#333333" stroke-width="1.82" stroke-linecap="round" stroke-linejoin="round"/>
</g>
<defs>
<clipPath id="clip0_1_133">
<rect width="44" height="48" fill="white" transform="translate(0 0.5)"/>
</clipPath>
</defs>
</svg>
