<svg width="48" height="49" viewBox="0 0 48 49" fill="none" xmlns="http://www.w3.org/2000/svg">
<rect y="0.5" width="48" height="48" rx="24" fill="#F3F6FB"/>
<path d="M32 24.5C31.9998 22.9712 31.5615 21.4745 30.737 20.1871C29.9126 18.8997 28.7365 17.8754 27.3481 17.2356C25.9596 16.5958 24.4169 16.3672 22.9026 16.5769C21.3882 16.7866 19.9657 17.4259 18.8034 18.4189C17.641 19.412 16.7876 20.7173 16.3441 22.1804C15.9005 23.6434 15.8855 25.2029 16.3007 26.6742C16.716 28.1455 17.5441 29.467 18.6871 30.4823C19.83 31.4976 21.24 32.1642 22.75 32.403V26.8125L20.719 26.8125L20.719 24.5H22.75V22.7375C22.75 20.7325 23.9445 19.625 25.7715 19.625C26.3715 19.6333 26.9701 19.6855 27.5625 19.781V21.75H26.5535C26.3816 21.7272 26.2067 21.7433 26.0418 21.7973C25.877 21.8512 25.7264 21.9416 25.6012 22.0616C25.476 22.1817 25.3794 22.3283 25.3186 22.4908C25.2578 22.6532 25.2344 22.8273 25.25 23V24.5L27.469 24.5L27.114 26.8125H25.25V32.403C27.1319 32.1053 28.8458 31.1457 30.0832 29.697C31.3206 28.2482 32.0003 26.4053 32 24.5Z" fill="#335CA6"/>
</svg>
