<svg width="48" height="49" viewBox="0 0 48 49" fill="none" xmlns="http://www.w3.org/2000/svg">
<rect y="0.5" width="48" height="48" rx="24" fill="#FEF1F1"/>
<path d="M31.1916 23.1365L24.0326 23.1365V26.2045L28.0901 26.2045C27.4401 28.25 25.8401 28.932 24.0001 28.932C23.2872 28.9329 22.5846 28.7619 21.9519 28.4334C21.3192 28.1049 20.7751 27.6286 20.3658 27.045C19.9564 26.4614 19.6939 25.7876 19.6005 25.0809C19.507 24.3742 19.5854 23.6553 19.8291 22.9854C20.0727 22.3154 20.4743 21.7141 20.9999 21.2325C21.5255 20.7509 22.1595 20.4031 22.8481 20.2188C23.5367 20.0344 24.2597 20.0189 24.9556 20.1735C25.6515 20.3282 26.2998 20.6484 26.8456 21.107L29.0751 18.9835C28.1773 18.1565 27.0912 17.5612 25.9111 17.2492C24.731 16.9372 23.4927 16.9179 22.3034 17.193C21.1142 17.4681 20.0101 18.0293 19.087 18.8279C18.1639 19.6265 17.4496 20.6383 17.0062 21.7756C16.5628 22.9128 16.4037 24.1411 16.5427 25.3538C16.6816 26.5665 17.1144 27.7269 17.8036 28.7344C18.4927 29.7418 19.4173 30.5659 20.4972 31.135C21.577 31.7041 22.7794 32.001 24.0001 32C28.1356 32 31.8736 29.2725 31.1916 23.1365Z" fill="#C71610"/>
</svg>
