<svg width="54" height="55" viewBox="0 0 54 55" fill="none" xmlns="http://www.w3.org/2000/svg">
<path d="M26.3896 47.02C37.1702 47.02 45.9096 38.2806 45.9096 27.5C45.9096 16.7194 37.1702 7.98 26.3896 7.98C15.609 7.98 6.86963 16.7194 6.86963 27.5C6.86963 38.2806 15.609 47.02 26.3896 47.02Z" fill="#D3C1FA"/>
<path fill-rule="evenodd" clip-rule="evenodd" d="M37.8555 43.2882C37.2868 43.338 36.7112 43.3634 36.1296 43.3634C25.349 43.3634 16.6096 34.624 16.6096 23.8434C16.6096 17.3562 19.7742 11.6081 24.6437 8.05867C14.6715 8.93231 6.84961 17.3044 6.84961 27.5034C6.84961 38.284 15.589 47.0234 26.3696 47.0234C30.663 47.0234 34.6327 45.6373 37.8555 43.2882Z" fill="#8E61F1"/>
<path d="M47.7796 18.98L34.0996 24.26C33.1552 24.6245 32.6851 25.6856 33.0496 26.63C33.4142 27.5744 34.4752 28.0445 35.4196 27.68L49.0996 22.4C50.0441 22.0355 50.5142 20.9744 50.1496 20.03C49.7851 19.0856 48.7241 18.6155 47.7796 18.98Z" fill="#6D31ED"/>
<path d="M24.8498 29.49L5.46977 36.97C4.52536 37.3345 4.05526 38.3956 4.41977 39.34C4.78427 40.2844 5.84536 40.7545 6.78977 40.39L26.1698 32.91C27.1142 32.5455 27.5843 31.4844 27.2198 30.54C26.8553 29.5956 25.7942 29.1255 24.8498 29.49Z" fill="#6D31ED"/>
<path d="M42.5699 14.65L39.1499 15.97C38.2055 16.3345 37.7354 17.3956 38.0999 18.34C38.4644 19.2844 39.5255 19.7545 40.4699 19.39L43.8899 18.07C44.8343 17.7055 45.3044 16.6444 44.9399 15.7C44.5754 14.7556 43.5143 14.2855 42.5699 14.65Z" fill="#6D31ED"/>
<path d="M47.4595 25.61L39.4795 28.69C38.5351 29.0545 38.065 30.1156 38.4295 31.06C38.794 32.0044 39.8551 32.4745 40.7995 32.11L48.7795 29.03C49.7239 28.6655 50.194 27.6044 49.8295 26.66C49.465 25.7156 48.4039 25.2455 47.4595 25.61Z" fill="#6D31ED"/>
<path d="M7.13976 33.7L28.7998 25.34C29.7442 24.9755 30.2143 23.9144 29.8498 22.97C29.4853 22.0256 28.4242 21.5555 27.4798 21.92L5.81976 30.28C4.87536 30.6445 4.40526 31.7056 4.76976 32.65C5.13427 33.5944 6.19536 34.0645 7.13976 33.7Z" fill="#6D31ED"/>
</svg>
