<svg width="166" height="55" viewBox="0 0 166 55" fill="none" xmlns="http://www.w3.org/2000/svg">
<path d="M68.588 33.66C67.8947 33.66 67.26 33.5747 66.684 33.404C66.1187 33.2333 65.612 32.9827 65.164 32.652C64.7267 32.3213 64.332 31.9213 63.98 31.452L65.484 29.74C66.0067 30.4653 66.524 30.9613 67.036 31.228C67.5587 31.484 68.124 31.612 68.732 31.612C69.0627 31.612 69.356 31.5693 69.612 31.484C69.8787 31.388 70.0867 31.2547 70.236 31.084C70.3853 30.9133 70.46 30.7107 70.46 30.476C70.46 30.3053 70.4227 30.1507 70.348 30.012C70.2733 29.8627 70.1667 29.7347 70.028 29.628C69.8893 29.5107 69.724 29.4093 69.532 29.324C69.34 29.228 69.1267 29.148 68.892 29.084C68.6573 29.0093 68.4013 28.9507 68.124 28.908C67.5267 28.7693 67.004 28.604 66.556 28.412C66.108 28.2093 65.7347 27.964 65.436 27.676C65.1373 27.3773 64.9133 27.0413 64.764 26.668C64.6253 26.2947 64.556 25.8733 64.556 25.404C64.556 24.924 64.6627 24.4813 64.876 24.076C65.0893 23.66 65.3827 23.3027 65.756 23.004C66.14 22.7053 66.5773 22.476 67.068 22.316C67.5693 22.156 68.0973 22.076 68.652 22.076C69.3347 22.076 69.932 22.156 70.444 22.316C70.956 22.4653 71.3987 22.684 71.772 22.972C72.156 23.26 72.476 23.612 72.732 24.028L71.212 25.5C70.988 25.2013 70.7427 24.9507 70.476 24.748C70.22 24.5453 69.9373 24.396 69.628 24.3C69.3293 24.1933 69.02 24.14 68.7 24.14C68.348 24.14 68.044 24.188 67.788 24.284C67.532 24.3693 67.3293 24.4973 67.18 24.668C67.0413 24.8387 66.972 25.0467 66.972 25.292C66.972 25.484 67.02 25.6547 67.116 25.804C67.212 25.9533 67.3507 26.0867 67.532 26.204C67.7133 26.3107 67.932 26.4067 68.188 26.492C68.444 26.5773 68.7267 26.652 69.036 26.716C69.6227 26.8333 70.1507 26.988 70.62 27.18C71.0893 27.372 71.4893 27.6067 71.82 27.884C72.1613 28.1507 72.4227 28.4707 72.604 28.844C72.7853 29.2067 72.876 29.6173 72.876 30.076C72.876 30.8333 72.6947 31.4787 72.332 32.012C71.9693 32.5453 71.468 32.956 70.828 33.244C70.188 33.5213 69.4413 33.66 68.588 33.66ZM74.7298 37.02V25.036H76.9218L76.9858 26.94L76.5698 26.796C76.6444 26.4547 76.8258 26.14 77.1138 25.852C77.4124 25.564 77.7804 25.3293 78.2178 25.148C78.6551 24.9667 79.1138 24.876 79.5938 24.876C80.3298 24.876 80.9804 25.068 81.5458 25.452C82.1218 25.8253 82.5751 26.3427 82.9058 27.004C83.2471 27.6547 83.4178 28.4067 83.4178 29.26C83.4178 30.1027 83.2524 30.8547 82.9218 31.516C82.5911 32.1773 82.1378 32.7 81.5618 33.084C80.9858 33.4573 80.3298 33.644 79.5938 33.644C79.1031 33.644 78.6338 33.5533 78.1858 33.372C77.7484 33.18 77.3751 32.9293 77.0658 32.62C76.7564 32.3107 76.5644 31.98 76.4898 31.628L77.0178 31.404V37.02H74.7298ZM79.0818 31.692C79.4978 31.692 79.8658 31.5907 80.1858 31.388C80.5058 31.1853 80.7564 30.9027 80.9378 30.54C81.1191 30.1667 81.2098 29.74 81.2098 29.26C81.2098 28.78 81.1191 28.3587 80.9378 27.996C80.7564 27.6333 80.5058 27.3507 80.1858 27.148C79.8764 26.9453 79.5084 26.844 79.0818 26.844C78.6551 26.844 78.2818 26.9453 77.9618 27.148C77.6418 27.34 77.3911 27.6227 77.2098 27.996C77.0284 28.3587 76.9378 28.78 76.9378 29.26C76.9378 29.74 77.0284 30.1667 77.2098 30.54C77.3911 30.9027 77.6418 31.1853 77.9618 31.388C78.2818 31.5907 78.6551 31.692 79.0818 31.692ZM89.072 33.66C88.208 33.66 87.4347 33.4733 86.752 33.1C86.08 32.716 85.5467 32.1933 85.152 31.532C84.768 30.8707 84.576 30.1133 84.576 29.26C84.576 28.4067 84.768 27.6547 85.152 27.004C85.5467 26.3427 86.08 25.82 86.752 25.436C87.4347 25.052 88.208 24.86 89.072 24.86C89.9253 24.86 90.688 25.052 91.36 25.436C92.0427 25.82 92.576 26.3427 92.96 27.004C93.344 27.6547 93.536 28.4067 93.536 29.26C93.536 30.1133 93.344 30.8707 92.96 31.532C92.576 32.1933 92.0427 32.716 91.36 33.1C90.688 33.4733 89.9253 33.66 89.072 33.66ZM89.072 31.676C89.488 31.676 89.8613 31.5747 90.192 31.372C90.5227 31.1587 90.7787 30.8707 90.96 30.508C91.152 30.1347 91.248 29.7187 91.248 29.26C91.248 28.7907 91.152 28.3747 90.96 28.012C90.7787 27.6387 90.5227 27.3507 90.192 27.148C89.8613 26.9347 89.488 26.828 89.072 26.828C88.6453 26.828 88.2667 26.9347 87.936 27.148C87.6053 27.3613 87.344 27.6493 87.152 28.012C86.96 28.3747 86.8693 28.7907 86.88 29.26C86.8693 29.7187 86.96 30.1347 87.152 30.508C87.344 30.8707 87.6053 31.1587 87.936 31.372C88.2667 31.5747 88.6453 31.676 89.072 31.676ZM95.2454 33.5V25.036H97.4374L97.5174 27.756L97.1334 27.196C97.2614 26.7587 97.4694 26.364 97.7574 26.012C98.0454 25.6493 98.3814 25.3667 98.7654 25.164C99.16 24.9613 99.5707 24.86 99.9974 24.86C100.179 24.86 100.355 24.876 100.525 24.908C100.696 24.94 100.84 24.9773 100.957 25.02L100.349 27.516C100.221 27.452 100.067 27.3987 99.8854 27.356C99.704 27.3027 99.5174 27.276 99.3254 27.276C99.0694 27.276 98.8294 27.324 98.6054 27.42C98.392 27.5053 98.2054 27.6333 98.0454 27.804C97.8854 27.964 97.7574 28.156 97.6614 28.38C97.576 28.604 97.5334 28.8493 97.5334 29.116V33.5H95.2454ZM103.39 33.5V22.892H105.661V33.5H103.39ZM101.806 27.068V25.036L107.39 25.036V27.068L101.806 27.068ZM109.19 33.5V22.3L114.054 22.3C114.801 22.3 115.43 22.412 115.942 22.636C116.465 22.8493 116.86 23.164 117.126 23.58C117.393 23.996 117.526 24.492 117.526 25.068C117.526 25.708 117.366 26.2413 117.046 26.668C116.726 27.0947 116.268 27.388 115.67 27.548L115.654 27.228C116.145 27.3453 116.577 27.5373 116.95 27.804C117.324 28.0707 117.612 28.4013 117.814 28.796C118.017 29.1907 118.118 29.6387 118.118 30.14C118.118 30.6947 118.028 31.1853 117.846 31.612C117.665 32.028 117.398 32.3747 117.046 32.652C116.694 32.9293 116.278 33.1427 115.798 33.292C115.329 33.4307 114.801 33.5 114.214 33.5H109.19ZM111.494 31.42H114.118C114.46 31.42 114.748 31.372 114.982 31.276C115.228 31.1693 115.414 31.0093 115.542 30.796C115.67 30.5827 115.734 30.332 115.734 30.044C115.734 29.7667 115.665 29.532 115.526 29.34C115.388 29.148 115.19 29.004 114.934 28.908C114.689 28.8013 114.39 28.748 114.038 28.748H111.494V31.42ZM111.494 26.844H113.766C114.054 26.844 114.305 26.7907 114.518 26.684C114.732 26.5773 114.892 26.4333 114.998 26.252C115.116 26.0707 115.174 25.8573 115.174 25.612C115.174 25.2173 115.046 24.9133 114.79 24.7C114.534 24.4867 114.15 24.38 113.638 24.38H111.494V26.844ZM123.9 33.66C123.036 33.66 122.263 33.4733 121.58 33.1C120.908 32.716 120.375 32.1933 119.98 31.532C119.596 30.8707 119.404 30.1133 119.404 29.26C119.404 28.4067 119.596 27.6547 119.98 27.004C120.375 26.3427 120.908 25.82 121.58 25.436C122.263 25.052 123.036 24.86 123.9 24.86C124.753 24.86 125.516 25.052 126.188 25.436C126.871 25.82 127.404 26.3427 127.788 27.004C128.172 27.6547 128.364 28.4067 128.364 29.26C128.364 30.1133 128.172 30.8707 127.788 31.532C127.404 32.1933 126.871 32.716 126.188 33.1C125.516 33.4733 124.753 33.66 123.9 33.66ZM123.9 31.676C124.316 31.676 124.689 31.5747 125.02 31.372C125.351 31.1587 125.607 30.8707 125.788 30.508C125.98 30.1347 126.076 29.7187 126.076 29.26C126.076 28.7907 125.98 28.3747 125.788 28.012C125.607 27.6387 125.351 27.3507 125.02 27.148C124.689 26.9347 124.316 26.828 123.9 26.828C123.473 26.828 123.095 26.9347 122.764 27.148C122.433 27.3613 122.172 27.6493 121.98 28.012C121.788 28.3747 121.697 28.7907 121.708 29.26C121.697 29.7187 121.788 30.1347 121.98 30.508C122.172 30.8707 122.433 31.1587 122.764 31.372C123.095 31.5747 123.473 31.676 123.9 31.676ZM134.01 33.66C133.146 33.66 132.372 33.4733 131.69 33.1C131.018 32.716 130.484 32.1933 130.09 31.532C129.706 30.8707 129.514 30.1133 129.514 29.26C129.514 28.4067 129.706 27.6547 130.09 27.004C130.484 26.3427 131.018 25.82 131.69 25.436C132.372 25.052 133.146 24.86 134.01 24.86C134.863 24.86 135.626 25.052 136.298 25.436C136.98 25.82 137.514 26.3427 137.898 27.004C138.282 27.6547 138.474 28.4067 138.474 29.26C138.474 30.1133 138.282 30.8707 137.898 31.532C137.514 32.1933 136.98 32.716 136.298 33.1C135.626 33.4733 134.863 33.66 134.01 33.66ZM134.01 31.676C134.426 31.676 134.799 31.5747 135.13 31.372C135.46 31.1587 135.716 30.8707 135.898 30.508C136.09 30.1347 136.186 29.7187 136.186 29.26C136.186 28.7907 136.09 28.3747 135.898 28.012C135.716 27.6387 135.46 27.3507 135.13 27.148C134.799 26.9347 134.426 26.828 134.01 26.828C133.583 26.828 133.204 26.9347 132.874 27.148C132.543 27.3613 132.282 27.6493 132.09 28.012C131.898 28.3747 131.807 28.7907 131.818 29.26C131.807 29.7187 131.898 30.1347 132.09 30.508C132.282 30.8707 132.543 31.1587 132.874 31.372C133.204 31.5747 133.583 31.676 134.01 31.676ZM142.343 30.956L141.671 29.084L145.671 25.036H148.663L142.343 30.956ZM140.183 33.5V21.66L142.455 21.66V33.5H140.183ZM145.911 33.5L142.871 29.676L144.471 28.396L148.647 33.5H145.911ZM153.558 33.66C152.641 33.66 151.841 33.4733 151.158 33.1C150.476 32.7267 149.942 32.2147 149.558 31.564C149.174 30.9133 148.982 30.1667 148.982 29.324C148.982 28.6733 149.089 28.076 149.302 27.532C149.516 26.988 149.814 26.5187 150.198 26.124C150.582 25.7187 151.036 25.4093 151.558 25.196C152.092 24.972 152.668 24.86 153.286 24.86C153.862 24.86 154.396 24.9667 154.886 25.18C155.377 25.3827 155.798 25.676 156.15 26.06C156.513 26.4333 156.79 26.876 156.982 27.388C157.174 27.9 157.26 28.46 157.238 29.068L157.222 29.772H150.422L150.054 28.38H155.35L155.094 28.668V28.316C155.073 28.028 154.977 27.7667 154.806 27.532C154.646 27.2973 154.438 27.116 154.182 26.988C153.926 26.86 153.638 26.796 153.318 26.796C152.849 26.796 152.449 26.8867 152.118 27.068C151.798 27.2493 151.553 27.516 151.382 27.868C151.212 28.22 151.126 28.6467 151.126 29.148C151.126 29.66 151.233 30.1027 151.446 30.476C151.67 30.8493 151.98 31.1427 152.374 31.356C152.78 31.5587 153.254 31.66 153.798 31.66C154.172 31.66 154.513 31.6013 154.822 31.484C155.132 31.3667 155.462 31.164 155.814 30.876L156.902 32.396C156.593 32.6733 156.252 32.908 155.878 33.1C155.505 33.2813 155.121 33.42 154.726 33.516C154.332 33.612 153.942 33.66 153.558 33.66ZM158.917 33.5V25.036H161.109L161.189 27.756L160.805 27.196C160.933 26.7587 161.141 26.364 161.429 26.012C161.717 25.6493 162.053 25.3667 162.437 25.164C162.832 24.9613 163.243 24.86 163.669 24.86C163.851 24.86 164.027 24.876 164.197 24.908C164.368 24.94 164.512 24.9773 164.629 25.02L164.021 27.516C163.893 27.452 163.739 27.3987 163.557 27.356C163.376 27.3027 163.189 27.276 162.997 27.276C162.741 27.276 162.501 27.324 162.277 27.42C162.064 27.5053 161.877 27.6333 161.717 27.804C161.557 27.964 161.429 28.156 161.333 28.38C161.248 28.604 161.205 28.8493 161.205 29.116V33.5H158.917Z" fill="#6D31ED"/>
<path d="M26.89 47.02C37.6706 47.02 46.41 38.2806 46.41 27.5C46.41 16.7194 37.6706 7.98 26.89 7.98C16.1094 7.98 7.37 16.7194 7.37 27.5C7.37 38.2806 16.1094 47.02 26.89 47.02Z" fill="#D3C1FA"/>
<path fill-rule="evenodd" clip-rule="evenodd" d="M38.3558 43.2882C37.7871 43.338 37.2115 43.3634 36.6299 43.3634C25.8493 43.3634 17.1099 34.6241 17.1099 23.8434C17.1099 17.3562 20.2745 11.6081 25.144 8.05868C15.1718 8.93232 7.3499 17.3044 7.3499 27.5034C7.3499 38.2841 16.0893 47.0234 26.8699 47.0234C31.1633 47.0234 35.133 45.6373 38.3558 43.2882Z" fill="#8E61F1"/>
<path d="M48.28 18.98L34.6 24.26C33.6556 24.6245 33.1855 25.6856 33.55 26.63C33.9145 27.5744 34.9756 28.0445 35.92 27.68L49.6 22.4C50.5444 22.0355 51.0145 20.9744 50.65 20.03C50.2855 19.0856 49.2244 18.6155 48.28 18.98Z" fill="#6D31ED"/>
<path d="M25.35 29.49L5.97 36.97C5.0256 37.3345 4.55549 38.3956 4.92 39.34C5.28451 40.2844 6.3456 40.7545 7.29 40.39L26.67 32.91C27.6144 32.5455 28.0845 31.4844 27.72 30.54C27.3555 29.5956 26.2944 29.1255 25.35 29.49Z" fill="#6D31ED"/>
<path d="M43.07 14.65L39.65 15.97C38.7056 16.3345 38.2355 17.3956 38.6 18.34C38.9645 19.2844 40.0256 19.7545 40.97 19.39L44.39 18.07C45.3344 17.7055 45.8045 16.6444 45.44 15.7C45.0755 14.7556 44.0144 14.2855 43.07 14.65Z" fill="#6D31ED"/>
<path d="M47.96 25.61L39.98 28.69C39.0356 29.0545 38.5655 30.1156 38.93 31.06C39.2945 32.0044 40.3556 32.4745 41.3 32.11L49.28 29.03C50.2244 28.6655 50.6945 27.6044 50.33 26.66C49.9655 25.7156 48.9044 25.2455 47.96 25.61Z" fill="#6D31ED"/>
<path d="M7.64 33.7L29.3 25.34C30.2444 24.9755 30.7145 23.9144 30.35 22.97C29.9855 22.0256 28.9244 21.5555 27.98 21.92L6.32 30.28C5.37559 30.6445 4.90549 31.7056 5.27 32.65C5.63451 33.5944 6.69559 34.0645 7.64 33.7Z" fill="#6D31ED"/>
</svg>
