<svg width="384" height="325" viewBox="0 0 384 325" fill="none" xmlns="http://www.w3.org/2000/svg">
<g clip-path="url(#clip0_1_231)">
<path d="M349.51 276.887C357.879 276.887 364.663 265.131 364.663 250.63C364.663 236.129 357.879 224.373 349.51 224.373C341.141 224.373 334.356 236.129 334.356 250.63C334.356 265.131 341.141 276.887 349.51 276.887Z" stroke="#15ABFF" stroke-width="0.77" stroke-miterlimit="10"/>
<path d="M336.559 262.206C334.403 257.232 336.028 254.183 336.028 250.656C336.028 243.241 338.515 234.848 342.958 229.581C344.15 233.352 344.785 237.277 344.845 241.232C344.821 248.631 340.979 256.94 336.559 262.206Z" fill="#15ABFF"/>
<path d="M326.31 267.567C334.679 267.567 341.463 255.811 341.463 241.31C341.463 226.809 334.679 215.053 326.31 215.053C317.941 215.053 311.156 226.809 311.156 241.31C311.156 255.811 317.941 267.567 326.31 267.567Z" fill="white"/>
<path d="M363.366 251.488C363.366 254.422 364.552 256.762 362.935 260.728C355.966 255.176 350.738 245.852 350.738 236.25C350.83 232.867 351.323 229.506 352.208 226.24C359.169 231.745 363.366 241.886 363.366 251.488Z" fill="#15ABFF"/>
<path d="M368.54 261.047C376.909 261.047 383.693 249.291 383.693 234.79C383.693 220.289 376.909 208.533 368.54 208.533C360.171 208.533 353.386 220.289 353.386 234.79C353.386 249.291 360.171 261.047 368.54 261.047Z" fill="white"/>
<path d="M349.51 276.849V237.471M349.51 252.894L355.647 245.879M349.51 261.272L358.357 251.162M349.51 269.911L358.642 259.462M349.51 252.917L342.072 244.401M349.51 261.287L340.378 250.846M349.51 269.927L340.378 259.485" stroke="#15ABFF" stroke-width="0.77" stroke-linecap="round" stroke-linejoin="round"/>
<path d="M368.54 261.047C376.909 261.047 383.693 249.291 383.693 234.79C383.693 220.289 376.909 208.533 368.54 208.533C360.171 208.533 353.386 220.289 353.386 234.79C353.386 249.291 360.171 261.047 368.54 261.047Z" stroke="#6D31ED" stroke-width="0.77" stroke-miterlimit="10"/>
<path d="M368.54 221.585V276.995M368.54 237.008L375.963 228.515M368.54 245.386L377.672 234.945M368.54 254.018L377.672 243.577M368.54 237.024L361.094 228.515M368.54 245.401L359.408 234.96M368.54 254.041L359.408 243.592" stroke="#6D31ED" stroke-width="0.77" stroke-linecap="round" stroke-linejoin="round"/>
<path d="M326.31 267.567C334.679 267.567 341.463 255.811 341.463 241.31C341.463 226.809 334.679 215.053 326.31 215.053C317.941 215.053 311.156 226.809 311.156 241.31C311.156 255.811 317.941 267.567 326.31 267.567Z" stroke="#FFD317" stroke-width="0.77" stroke-linecap="round" stroke-linejoin="round"/>
<path d="M326.31 228.126V276.982M326.31 243.549L333.74 235.056M326.31 251.926L335.442 241.485M326.31 260.558L335.442 250.117M326.31 243.564L318.871 235.056M326.31 251.942L317.177 241.501M326.31 260.573L317.177 250.132" stroke="#FFD317" stroke-width="0.77" stroke-linecap="round" stroke-linejoin="round"/>
<path d="M18.4482 276.85H378.539" stroke="#565D6D" stroke-width="0.77" stroke-linecap="round" stroke-linejoin="round"/>
<path d="M115.553 170.669L77.1806 132.297C73.3036 128.42 67.0177 128.42 63.1406 132.297L24.2066 171.231C20.3296 175.108 20.3296 181.394 24.2066 185.271L62.579 223.643C66.4561 227.52 72.742 227.52 76.619 223.643L115.553 184.709C119.43 180.832 119.43 174.546 115.553 170.669Z" fill="#C3E1F8"/>
<path d="M124.593 170.95L76.8999 123.257C73.0228 119.38 66.7369 119.38 62.8599 123.257L15.1671 170.95C11.29 174.827 11.29 181.113 15.1671 184.99L62.8599 232.683C66.7369 236.56 73.0228 236.56 76.8999 232.683L124.593 184.99C128.47 181.113 128.47 174.827 124.593 170.95Z" stroke="#6D31ED" stroke-width="0.763675" stroke-linecap="round" stroke-linejoin="round"/>
<path d="M24.0076 240.342C24.4207 242.35 24.7317 244.378 24.9393 246.418C25.1703 248.443 25.3089 250.476 25.4321 252.508C25.5553 254.541 25.6092 256.582 25.5938 258.63C25.6082 260.686 25.5182 262.742 25.3243 264.79C24.9112 262.782 24.6003 260.754 24.3926 258.715C24.1616 256.69 24.023 254.649 23.8998 252.616C23.7766 250.583 23.7304 248.543 23.7381 246.502C23.7458 244.462 23.7997 242.421 24.0076 240.342Z" fill="#EF3607"/>
<path d="M36.8874 251.898C34.8793 252.31 32.8516 252.621 30.8121 252.829C28.7793 253.06 26.7465 253.199 24.7137 253.33C22.6809 253.461 20.6404 253.499 18.5999 253.484C16.5433 253.502 14.4871 253.413 12.4399 253.214C14.4474 252.8 16.4753 252.492 18.5152 252.29C20.5403 252.059 22.5731 251.913 24.6059 251.79C26.6387 251.667 28.6792 251.621 30.7197 251.636C32.7787 251.619 34.8373 251.706 36.8874 251.898Z" fill="#EF3607"/>
<path d="M79.4432 212.736C79.8156 214.075 80.0884 215.439 80.2594 216.817C80.4519 218.18 80.5828 219.551 80.6521 220.921C80.7214 222.292 80.7445 223.663 80.706 225.041C80.6832 226.429 80.5571 227.814 80.3287 229.184C79.9575 227.845 79.6822 226.481 79.5048 225.103C79.32 223.74 79.1891 222.377 79.1198 221.006C79.0505 219.636 79.0274 218.257 79.0659 216.879C79.0891 215.491 79.2152 214.106 79.4432 212.736Z" fill="#6D31ED"/>
<path d="M88.1358 220.521C86.8002 220.894 85.4387 221.167 84.0625 221.337C82.6919 221.522 81.329 221.661 79.9584 221.73C78.5878 221.799 77.2172 221.822 75.8389 221.784C74.4506 221.761 73.0659 221.635 71.6963 221.407C73.0308 221.027 74.3926 220.752 75.7696 220.583C77.1402 220.398 78.5031 220.259 79.8737 220.19C81.2443 220.121 82.6149 220.105 83.9932 220.144C85.3815 220.167 86.7662 220.293 88.1358 220.521Z" fill="#6D31ED"/>
<path d="M134.266 0.440094C134.689 2.45749 134.966 4.48259 135.19 6.51539C135.413 8.54819 135.567 10.5733 135.69 12.6138C135.813 14.6543 135.859 16.6871 135.852 18.7276C135.864 20.7843 135.771 22.8403 135.575 24.8876C135.151 22.8702 134.874 20.8451 134.651 18.8123C134.427 16.7795 134.273 14.7544 134.15 12.7139C134.027 10.6734 133.981 8.64059 133.996 6.60009C133.982 4.54353 134.072 2.48755 134.266 0.440094Z" fill="#EF3607"/>
<path d="M147.141 11.9356C145.124 12.3591 143.099 12.6363 141.066 12.8596C139.033 13.0829 137.008 13.2369 134.968 13.3601C132.927 13.4833 130.894 13.5295 128.854 13.5218C126.797 13.5336 124.741 13.4411 122.694 13.2446C124.711 12.8211 126.736 12.5439 128.769 12.3206C130.802 12.0973 132.827 11.9433 134.868 11.8201C136.908 11.6969 138.941 11.6507 140.981 11.6661C143.038 11.6478 145.094 11.7378 147.141 11.9356ZM150.36 15.3544C150.732 16.6927 151.005 18.0568 151.176 19.4354C151.361 20.7983 151.5 22.1689 151.569 23.5395C151.638 24.9101 151.661 26.2807 151.623 27.659C151.6 29.0473 151.473 30.432 151.245 31.8016C150.871 30.4634 150.595 29.0994 150.422 27.7206C150.237 26.3577 150.098 24.9871 150.029 23.6165C149.96 22.2459 149.944 20.8753 149.983 19.497C150.005 18.1087 150.132 16.724 150.36 15.3544Z" fill="#EF3607"/>
<path d="M159.298 22.5098C157.959 22.8817 156.595 23.1571 155.217 23.3337C153.854 23.5185 152.491 23.6494 151.121 23.7264C149.75 23.8034 148.372 23.8111 147.001 23.7803C145.61 23.7545 144.223 23.6258 142.851 23.3953C144.189 23.0229 145.553 22.7501 146.932 22.5791C148.295 22.3943 149.665 22.2557 151.036 22.1864C152.406 22.1171 153.777 22.1017 155.155 22.1402C156.543 22.1643 157.928 22.2878 159.298 22.5098ZM7.35386 230.156C7.72578 231.492 8.00113 232.853 8.17775 234.229C8.36255 235.6 8.49345 236.962 8.57045 238.333C8.64745 239.704 8.65515 241.074 8.62435 242.453C8.59508 243.841 8.46642 245.225 8.23935 246.595C7.86624 245.26 7.59341 243.898 7.42315 242.522C7.23835 241.151 7.09975 239.788 7.03045 238.418C6.96115 237.047 6.93805 235.669 6.97655 234.298C7.00705 232.91 7.13312 231.526 7.35386 230.156Z" fill="#EF3607"/>
<path d="M15.5683 237.662C14.23 238.035 12.8659 238.307 11.4873 238.478C10.1244 238.671 8.75379 238.802 7.38319 238.871C6.01259 238.94 4.64199 238.964 3.26369 238.925C1.87538 238.902 0.49069 238.776 -0.878906 238.548C0.460138 238.177 1.82392 237.901 3.20209 237.724C4.56499 237.539 5.92789 237.408 7.29849 237.339C8.66909 237.27 10.0474 237.246 11.4257 237.285C12.814 237.309 14.1986 237.435 15.5683 237.662ZM344.505 125.512C344.918 127.52 345.229 129.548 345.436 131.587C345.667 133.612 345.806 135.645 345.937 137.685C346.068 139.726 346.106 141.759 346.091 143.799C346.105 145.856 346.015 147.912 345.821 149.959C345.407 147.952 345.099 145.924 344.897 143.884C344.659 141.859 344.52 139.826 344.397 137.786C344.274 135.745 344.227 133.712 344.235 131.672C344.243 129.631 344.297 127.568 344.505 125.512Z" fill="#EF3607"/>
<path d="M356.517 137.393C354.5 137.816 352.467 138.094 350.442 138.317C348.417 138.54 346.376 138.694 344.344 138.817C342.311 138.941 340.27 138.987 338.23 138.979C336.173 138.991 334.117 138.898 332.07 138.702C334.087 138.278 336.112 138.001 338.145 137.778C340.178 137.555 342.203 137.401 344.236 137.277C346.269 137.154 348.309 137.108 350.357 137.123C352.414 137.105 354.47 137.195 356.517 137.393ZM335.158 111.721C335.529 113.057 335.805 114.419 335.981 115.794C336.166 117.157 336.297 118.528 336.374 119.898C336.451 121.269 336.459 122.64 336.42 124.018C336.398 125.406 336.271 126.791 336.043 128.161C335.671 126.825 335.398 125.463 335.227 124.087C335.042 122.717 334.903 121.354 334.834 119.983C334.765 118.613 334.742 117.234 334.78 115.864C334.811 114.476 334.937 113.092 335.158 111.721Z" fill="#EF3607"/>
<path d="M343.863 119.521C342.525 119.893 341.161 120.166 339.782 120.337C338.42 120.522 337.049 120.661 335.678 120.73C334.308 120.799 332.937 120.822 331.559 120.784C330.171 120.761 328.786 120.635 327.416 120.407C328.754 120.032 330.118 119.756 331.497 119.583C332.86 119.398 334.223 119.267 335.594 119.198C336.964 119.128 338.343 119.105 339.721 119.144C341.109 119.167 342.494 119.293 343.863 119.521Z" fill="#EF3607"/>
<path d="M188.249 155.855L79.3633 196.981L169.646 241.872L287.548 196.981L188.249 155.855Z" fill="#00659F"/>
<path d="M188.022 155.855L169.418 241.872L287.321 196.981L188.022 155.855Z" fill="#00659F"/>
<path d="M188.241 156.087L287.541 197.121L319.673 198.122L221.498 154.001L188.241 156.087ZM50.5269 183.53L158.211 145.238L188.241 155.995L79.3557 197.121L50.5269 183.53Z" fill="#15ABFF"/>
<path d="M214.643 152.647C214.292 156.615 213.347 160.508 211.84 164.197C209.992 168.663 208.144 170.68 207.282 175.061C206.656 177.829 206.656 180.702 207.282 183.47C207.906 186.034 209.068 188.19 212.895 192.933C217.284 198.385 218.778 199.301 221.658 202.75C224.43 206.085 226.463 209.804 230.413 217.119C235.556 226.628 238.113 231.387 238.475 233.243C241.07 247.002 223.352 261.186 220.603 263.38C199.081 280.605 167.835 281.175 144.897 272.143C135.357 268.615 126.733 262.986 119.664 255.673C105.503 240.796 102.654 223.433 101.438 215.363C100.498 209.08 97.1874 184.786 110.555 162.095C124.13 139.048 141.47 140.465 147.353 119.683C151.834 103.859 145.713 89.1216 149.101 88.1129C152.689 87.0734 156.377 104.46 172.971 113.346C178.13 116.11 179.554 115.379 186.9 119.344C196.764 124.673 198.766 128.461 205.565 132.973C221.273 143.391 235.595 139.741 236.365 144.184C236.819 146.633 233.092 150.983 212.533 159.253L214.643 152.647Z" fill="#6D31ED"/>
<path d="M169.937 241.521L167.843 324.85L79.6548 276.54V196.63L169.937 241.521Z" fill="#15ABFF"/>
<path d="M169.426 241.521L167.331 324.85L282.523 286.119L287.328 196.63L169.426 241.521Z" fill="#4BBDFF"/>
<path d="M223.004 219.874C222.373 214.176 227.47 212.32 233.522 202.002C237.811 194.68 239.906 187.657 242.631 178.517C245.912 167.522 245.434 164.742 248.938 161.346C253.365 157.05 261.258 154.555 267.164 157.496C274.617 161.208 275.272 171.857 275.58 176.746C276.735 195.604 263.93 209.656 259.102 214.954C253.427 221.175 242.162 233.511 232.152 230.354C227.64 228.991 223.528 224.579 223.004 219.874Z" fill="#6D31ED"/>
<path d="M160.77 122.301L177.503 128.839C177.503 128.839 174.838 143.869 165.66 141.12C156.482 138.371 160.77 122.301 160.77 122.301Z" fill="white"/>
<path d="M160.77 122.301L177.503 128.839C177.503 128.839 174.838 143.869 165.66 141.12C156.482 138.371 160.77 122.301 160.77 122.301Z" stroke="#565D6D" stroke-width="0.77" stroke-linecap="round" stroke-linejoin="round"/>
<path d="M169.141 125.563C169.141 125.563 162.211 137.113 165.668 141.117C165.668 141.117 171.297 136.774 169.141 125.563Z" fill="#565D6D"/>
<path d="M183.489 131.393L195.809 142.42C195.809 142.42 188.671 154.54 181.633 149.211C174.596 143.883 183.489 131.393 183.489 131.393Z" fill="white"/>
<path d="M183.489 131.393L195.809 142.42C195.809 142.42 188.671 154.54 181.633 149.211C174.596 143.883 183.489 131.393 183.489 131.393Z" stroke="#565D6D" stroke-width="0.77" stroke-linecap="round" stroke-linejoin="round"/>
<path d="M189.666 136.88C189.666 136.88 180.01 144.58 181.658 149.2C181.658 149.185 187.918 147.252 189.666 136.88Z" fill="#565D6D"/>
<path d="M158.073 140.855C157.415 140.035 156.7 139.263 155.932 138.545C155.18 137.811 154.383 137.124 153.545 136.489C151.887 135.207 150.077 134.134 148.155 133.294C146.245 132.44 144.235 131.827 142.173 131.469C140.09 131.107 137.98 130.935 135.866 130.953C136.38 130.892 136.911 130.838 137.46 130.791C137.989 130.725 138.521 130.689 139.054 130.684C140.128 130.681 141.2 130.748 142.265 130.884C144.393 131.14 146.469 131.716 148.425 132.593C150.401 133.459 152.236 134.617 153.869 136.027C155.531 137.389 156.953 139.021 158.073 140.855ZM152.929 143.188C151.148 142.164 149.251 141.358 147.278 140.786C145.323 140.2 143.313 139.818 141.279 139.646C140.771 139.569 140.255 139.593 139.739 139.554C139.226 139.527 138.712 139.527 138.199 139.554H136.659L135.119 139.7C133.073 139.938 131.046 140.316 129.052 140.832C130.022 140.463 130.992 140.062 131.985 139.785C133 139.507 134.028 139.284 135.065 139.115C137.13 138.762 139.231 138.674 141.318 138.853C143.422 139.026 145.494 139.48 147.478 140.201C148.458 140.559 149.415 140.978 150.342 141.456C151.256 141.952 152.122 142.532 152.929 143.188ZM150.127 146.715C149.241 146.715 148.356 146.677 147.47 146.715C146.585 146.754 145.707 146.715 144.829 146.792C143.074 146.883 141.325 147.078 139.593 147.377C137.872 147.668 136.183 148.125 134.55 148.74C134.134 148.886 133.78 149.094 133.356 149.271C133.156 149.364 132.956 149.449 132.763 149.556L132.201 149.895C131.438 150.347 130.714 150.862 130.037 151.435C130.623 150.759 131.278 150.147 131.993 149.61L132.54 149.21C132.725 149.087 132.933 148.987 133.125 148.871C133.518 148.663 133.895 148.409 134.311 148.224C135.953 147.478 137.684 146.947 139.462 146.646C142.997 146.063 146.606 146.102 150.127 146.761V146.715ZM184.884 153.345C187.017 153.106 189.174 153.223 191.268 153.691C193.382 154.125 195.417 154.878 197.305 155.924C199.204 156.936 200.937 158.235 202.44 159.774C203.196 160.533 203.899 161.344 204.543 162.2C204.87 162.623 205.169 163.068 205.436 163.532C205.721 163.978 206.006 164.433 206.275 164.887C205.002 163.201 203.583 161.632 202.032 160.198C200.488 158.786 198.779 157.565 196.943 156.563C195.106 155.559 193.154 154.784 191.129 154.253C190.117 153.972 189.089 153.756 188.049 153.607C187.002 153.446 185.944 153.359 184.884 153.345ZM186.163 158.85C187.172 159.101 188.157 159.444 189.104 159.874C190.048 160.333 190.963 160.847 191.845 161.414C193.611 162.547 195.222 163.906 196.635 165.457C198.046 167.006 199.257 168.726 200.238 170.577C200.727 171.498 201.166 172.444 201.555 173.411C201.925 174.381 202.217 175.382 202.517 176.368C201.71 174.475 200.776 172.638 199.722 170.87L198.906 169.576L198.005 168.275C197.714 167.855 197.401 167.452 197.066 167.066C196.727 166.689 196.434 166.296 196.065 165.911C194.692 164.403 193.167 163.041 191.514 161.846C189.855 160.639 188.059 159.634 186.163 158.85ZM185.085 163.208C187.752 165.6 189.981 168.441 191.668 171.601C192.51 173.197 193.142 174.895 193.547 176.653C193.655 177.084 193.686 177.538 193.755 177.985C193.755 178.208 193.832 178.431 193.847 178.655V179.332C193.86 180.227 193.774 181.12 193.593 181.996C193.624 181.114 193.586 180.231 193.478 179.355L193.408 178.709C193.408 178.493 193.316 178.277 193.27 178.062C193.162 177.638 193.1 177.207 192.962 176.791C192.458 175.119 191.792 173.499 190.975 171.956C190.158 170.402 189.25 168.898 188.257 167.451C187.764 166.681 187.248 166.011 186.717 165.303C186.186 164.594 185.647 163.901 185.085 163.208Z" fill="#5113D7"/>
<path d="M169.501 247.589L200.001 283.293L284.94 247.966L287.242 202.736L169.648 241.621L169.501 247.589ZM138.162 269.888L169.501 247.565L169.648 241.621L79.3652 202.574V234.167L138.162 269.888Z" fill="#00659F"/>
<path d="M152.994 110.169L152.455 98.0646L159.708 108.606C159.708 108.606 156.305 106.188 152.994 110.169ZM215.864 146.875L227.953 146.105L217.527 153.528C217.527 153.528 219.891 150.094 215.864 146.875Z" fill="#D3C1FA"/>
<path d="M138.157 264.082L56.5757 214.524L79.36 196.768L169.642 241.659L138.157 264.082ZM311.376 231.118L200.158 277.379L169.642 241.659L287.545 196.768L311.376 231.118Z" fill="#15ABFF"/>
<path d="M79.6688 239.211C80.8815 237.998 82.1952 236.89 83.5958 235.9C84.9716 234.877 86.4352 233.978 87.9694 233.213C86.7585 234.428 85.4446 235.535 84.0424 236.524C82.663 237.541 81.1999 238.44 79.6688 239.211ZM79.6688 245.779C81.7136 243.967 83.852 242.262 86.0752 240.674C88.2779 239.059 90.5655 237.563 92.9282 236.192C90.8895 238.009 88.7535 239.713 86.5295 241.298C84.3243 242.913 82.0341 244.409 79.6688 245.779ZM79.6611 253.125C81.1472 251.939 82.6795 250.815 84.2272 249.737C85.7749 248.659 87.3072 247.573 88.9088 246.518C90.5104 245.463 92.0735 244.439 93.6905 243.438L96.116 241.96C96.9399 241.482 97.7484 240.997 98.58 240.543C97.81 241.136 97.04 241.69 96.3239 242.268L94.0139 243.931C92.4739 245.032 90.9339 246.095 89.3323 247.142C87.7307 248.189 86.1676 249.221 84.5506 250.222C82.9336 251.223 81.3243 252.208 79.6611 253.125ZM79.6688 263.243C81.8325 261.564 84.0501 259.947 86.2754 258.338C88.5007 256.728 90.7414 255.165 92.9898 253.602C95.2382 252.039 97.5174 250.522 99.812 248.982L103.262 246.741C104.424 246.018 105.572 245.271 106.75 244.562C105.672 245.417 104.563 246.226 103.477 247.049L100.151 249.475C97.9332 251.084 95.6848 252.647 93.4287 254.21C91.1726 255.774 88.9011 257.29 86.6065 258.83C84.3119 260.37 82.0173 261.826 79.6688 263.243ZM79.6611 273.168C82.4716 271.043 85.3283 268.994 88.1927 266.946C91.0571 264.898 93.96 262.919 96.8475 260.902C99.735 258.884 102.661 256.944 105.595 255.004L110.007 252.108C111.493 251.161 112.971 250.199 114.465 249.275C113.064 250.345 111.639 251.369 110.222 252.416L105.934 255.496C103.069 257.545 100.166 259.531 97.2787 261.549C94.3912 263.566 91.4652 265.506 88.5238 267.447C85.5824 269.387 82.6487 271.304 79.6611 273.168ZM86.2985 279.875C89.1783 277.711 92.112 275.609 95.0457 273.514C97.9794 271.42 100.959 269.395 103.908 267.354C106.858 265.314 109.868 263.304 112.871 261.318L117.391 258.345C118.931 257.375 120.417 256.39 121.95 255.442C120.517 256.536 119.054 257.583 117.599 258.653L113.21 261.803C110.269 263.889 107.296 265.93 104.347 267.963C101.398 269.995 98.3875 272.021 95.3768 274.007C92.3661 275.994 89.3631 277.973 86.2985 279.875ZM95.1689 284.91C98.0487 282.739 100.975 280.637 103.916 278.55C106.858 276.463 109.822 274.423 112.779 272.39C115.736 270.357 118.731 268.332 121.742 266.346L126.254 263.373C127.794 262.411 129.288 261.418 130.82 260.471C129.38 261.564 127.917 262.619 126.469 263.689L122.073 266.838C119.139 268.925 116.167 270.958 113.21 272.998C110.253 275.039 107.25 277.056 104.247 279.043C101.244 281.03 98.2258 283.001 95.1689 284.91ZM104.093 289.654C106.973 287.482 109.907 285.38 112.84 283.293C115.774 281.207 118.754 279.166 121.703 277.133C124.652 275.101 127.663 273.075 130.666 271.089L135.186 268.117C136.726 267.146 138.212 266.161 139.744 265.214C138.312 266.307 136.849 267.354 135.401 268.425L131.043 271.551C128.102 273.638 125.13 275.678 122.181 277.711C119.231 279.744 116.221 281.769 113.21 283.755C110.199 285.742 107.173 287.721 104.093 289.654ZM112.994 294.166C117.614 290.801 122.273 287.513 126.939 284.233L141.007 274.469L155.175 264.852L162.298 260.101L169.459 255.412L162.529 260.409L155.537 265.345L141.469 275.101L127.301 284.718C122.573 287.898 117.792 291.063 112.994 294.166ZM169.343 265.391C165.37 268.309 161.35 271.158 157.323 273.999C153.296 276.841 149.223 279.628 145.18 282.469C141.138 285.311 137.034 288.029 132.937 290.77L126.777 294.859C124.714 296.206 122.658 297.569 120.579 298.894C122.558 297.423 124.575 295.998 126.57 294.551L132.599 290.277C136.633 287.436 140.699 284.649 144.742 281.807C148.784 278.966 152.888 276.248 156.985 273.514C161.081 270.781 165.193 268.047 169.343 265.391ZM169.081 276.017C165.832 278.442 162.536 280.791 159.241 283.132C155.945 285.472 152.596 287.752 149.277 290.062C145.958 292.372 142.593 294.651 139.221 296.868L134.123 300.218C132.414 301.304 130.728 302.42 129.01 303.49C130.627 302.274 132.275 301.103 133.908 299.902L138.851 296.383C142.154 294.073 145.488 291.763 148.815 289.453C152.141 287.143 155.498 284.895 158.871 282.662C162.244 280.429 165.693 278.181 169.081 276.017ZM168.773 287.474C166.309 289.361 163.799 291.17 161.289 292.972C158.779 294.774 156.215 296.53 153.681 298.308C151.148 300.087 148.561 301.789 145.981 303.49L142.131 306.024C140.815 306.848 139.521 307.695 138.197 308.495C139.421 307.548 140.676 306.64 141.916 305.716L145.681 302.998C148.199 301.196 150.748 299.448 153.289 297.669C155.83 295.891 158.401 294.189 160.989 292.487C163.576 290.785 166.148 289.099 168.773 287.474ZM168.519 298.501C166.81 299.864 165.046 301.165 163.283 302.451C161.52 303.737 159.733 304.984 157.939 306.224C156.145 307.464 154.328 308.68 152.488 309.858L149.731 311.591C148.792 312.153 147.875 312.738 146.921 313.285C147.775 312.6 148.653 311.953 149.516 311.283L152.157 309.342C153.912 308.049 155.706 306.802 157.5 305.562C159.295 304.322 161.112 303.105 162.952 301.927C164.792 300.749 166.625 299.571 168.519 298.501ZM168.242 309.358C164.328 312.669 160.089 315.577 155.591 318.036C157.536 316.368 159.575 314.813 161.697 313.377C163.802 311.916 165.987 310.574 168.242 309.358ZM168.003 318.328C167.295 319.145 166.479 319.863 165.578 320.461C164.696 321.084 163.735 321.586 162.721 321.955C164.165 320.34 165.977 319.096 168.003 318.328Z" fill="#00659F"/>
<path d="M163.012 160.625C163.133 159.456 163.484 158.323 164.044 157.29C164.568 156.246 165.266 155.298 166.108 154.488C165.735 155.576 165.274 156.632 164.729 157.645C164.209 158.667 163.635 159.661 163.012 160.625Z" fill="#5113D7"/>
<path d="M164.368 144.539L175.232 150.515C175.232 150.515 161.904 163.805 164.368 144.539Z" fill="#D3C1FA"/>
<path d="M292.053 91.5834L223.584 76.8379C220.939 76.2685 219.05 73.9303 219.049 71.2246V39.5776C219.049 36.4052 221.621 33.8334 224.793 33.8334H293.223C294.749 33.8293 296.214 34.4327 297.295 35.5104C298.375 36.5881 298.983 38.0515 298.983 39.5776V85.9701C298.983 87.7014 298.202 89.3404 296.857 90.4301C295.512 91.5198 293.746 91.9436 292.053 91.5834Z" stroke="#6D31ED" stroke-width="0.77" stroke-linecap="round" stroke-linejoin="round"/>
<path d="M225.588 77.1401L228.275 84.6476L240.372 80.3279L225.588 77.1401Z" stroke="#6D31ED" stroke-width="0.77" stroke-linecap="round" stroke-linejoin="round"/>
<path d="M239.825 80.6072L240.326 80.4301L225.542 77.2423L226.497 79.8988L239.825 80.6072ZM259.129 71.5212H256.935L254.017 43.1236L261.378 41.5451L259.129 71.5212Z" fill="#6D31ED"/>
<path d="M257.84 77.1648C258.792 77.1648 259.565 76.3926 259.565 75.44C259.565 74.4874 258.792 73.7152 257.84 73.7152C256.887 73.7152 256.115 74.4874 256.115 75.44C256.115 76.3926 256.887 77.1648 257.84 77.1648Z" fill="#6D31ED"/>
<path d="M124.608 201.287C122.899 200.365 121.294 199.262 119.819 197.999C118.377 196.694 117.086 195.232 115.969 193.641C113.755 190.406 112.186 186.775 111.349 182.945C110.52 179.134 110.178 175.232 110.333 171.334C110.462 167.454 111.01 163.6 111.965 159.838C111.642 161.747 111.372 163.688 111.195 165.582C111.018 167.476 110.91 169.432 110.91 171.349C110.847 175.189 111.24 179.022 112.08 182.768C112.875 186.519 114.353 190.092 116.439 193.31C117.491 194.909 118.715 196.388 120.088 197.722C121.479 199.05 122.992 200.244 124.608 201.287ZM102.355 183.069C102.455 185.733 102.625 188.389 102.956 191.015C103.291 193.64 103.805 196.238 104.496 198.792C105.169 201.343 106.079 203.826 107.214 206.207C108.362 208.594 109.786 210.837 111.457 212.891C110.995 212.413 110.54 211.928 110.086 211.435C109.632 210.943 109.247 210.396 108.823 209.895C108.4 209.395 108.053 208.787 107.699 208.225C107.329 207.666 106.99 207.088 106.683 206.492C105.42 204.119 104.435 201.607 103.749 199.008C103.063 196.415 102.612 193.766 102.402 191.092C102.17 188.423 102.154 185.74 102.355 183.069ZM209.57 188.382C210.265 190.05 210.781 191.787 211.11 193.564C211.397 195.345 211.513 197.15 211.457 198.954C211.254 202.581 210.474 206.152 209.147 209.534C207.816 212.894 206.125 216.101 204.103 219.097C202.091 222.095 199.769 224.872 197.173 227.382C198.359 226.037 199.481 224.641 200.538 223.193C201.616 221.769 202.625 220.29 203.572 218.774C205.495 215.77 207.112 212.582 208.4 209.256C209.042 207.599 209.577 205.901 210.001 204.174C210.381 202.442 210.639 200.684 210.771 198.915C211.042 195.36 210.634 191.785 209.57 188.382ZM219.719 222.862C220.256 221.048 220.701 219.208 221.051 217.349C221.394 215.501 221.592 213.63 221.644 211.751C221.693 209.876 221.572 207.999 221.282 206.146C221.136 205.214 220.941 204.292 220.697 203.381C220.573 202.927 220.458 202.473 220.319 202.018C220.181 201.564 220.019 201.117 219.88 200.663C220.104 201.087 220.312 201.518 220.512 201.949C220.712 202.38 220.874 202.835 221.059 203.281C221.37 204.187 221.627 205.11 221.829 206.045C222.248 207.925 222.434 209.849 222.383 211.774C222.331 213.698 222.073 215.611 221.613 217.48C221.165 219.333 220.53 221.137 219.719 222.862Z" fill="#5113D7"/>
</g>
<defs>
<clipPath id="clip0_1_231">
<rect width="384" height="324" fill="white" transform="translate(0 0.5)"/>
</clipPath>
</defs>
</svg>
